PathFileType	4	(x/y/z)	S09_PSF_T14
DataRate	CameraRate	NumFrames	NumMarkers	Units	OrigDataRate	OrigDataStartFrame	OrigNumFrames
240	240	4	51	mm	240	334	444
Frame#	Time	Sternum			R.Acromium			L.Acromium			Top.Head			R.ASIS			L.ASIS			R.PSIS			L.PSIS			R.Great.Tro			L.Great.Tro			R.Iliac.Crest			L.Iliac.Crest			V.Sacral			R.Thigh.Upper.Post			R.Thigh.Lower.Ant			R.Thigh.Lower.Post			R.Thigh.Upper.Ant			R.Knee.Lat			R.Knee.Med			R.Shank.Upper.Post			R.Shank.Lower.Ant			R.Shank.Lower.Post			R.Shank.Upper.Ant			R.Ankle.Lat			R.Ankle.Med			R.Heel.Upper			R.Heel.Med			R.Heel.Lat			R.Toe.Lat			R.Toe.Med			R.Toe.Tip			L.Thigh.Upper.Post			L.Thigh.Lower.Ant			L.Thigh.Lower.Post			L.Thigh.Upper.Ant			L.Knee.Lat			L.Knee.Med			L.Shank.Upper.Post			L.Shank.Lower.Ant			L.Shank.Lower.Post			L.Shank.Upper.Ant			L.Ankle.Lat			L.Ankle.Med			L.Heel.Upper			L.Heel.Med			L.Heel.Lat			L.Toe.Lat			L.Toe.Med			L.Toe.Tip			Cervical.Spine			Back			
		X1	Y1	Z1	X2	Y2	Z2	X3	Y3	Z3	X4	Y4	Z4	X5	Y5	Z5	X6	Y6	Z6	X7	Y7	Z7	X8	Y8	Z8	X9	Y9	Z9	X10	Y10	Z10	X11	Y11	Z11	X12	Y12	Z12	X13	Y13	Z13	X14	Y14	Z14	X15	Y15	Z15	X16	Y16	Z16	X17	Y17	Z17	X18	Y18	Z18	X19	Y19	Z19	X20	Y20	Z20	X21	Y21	Z21	X22	Y22	Z22	X23	Y23	Z23	X24	Y24	Z24	X25	Y25	Z25	X26	Y26	Z26	X27	Y27	Z27	X28	Y28	Z28	X29	Y29	Z29	X30	Y30	Z30	X31	Y31	Z31	X32	Y32	Z32	X33	Y33	Z33	X34	Y34	Z34	X35	Y35	Z35	X36	Y36	Z36	X37	Y37	Z37	X38	Y38	Z38	X39	Y39	Z39	X40	Y40	Z40	X41	Y41	Z41	X42	Y42	Z42	X43	Y43	Z43	X44	Y44	Z44	X45	Y45	Z45	X46	Y46	Z46	X47	Y47	Z47	X48	Y48	Z48	X49	Y49	Z49	X50	Y50	Z50	X51	Y51	Z51	

334	1.3875	223.86	1181.5	336.82	82.63	1430.3	486.98	86.158	1426.8	171.28	68.076	1734.8	320.57	169.64	1013.7	446.14	179.1	1026.7	201.02	-49.782	1028.5	360.8	-38.574	1036.2	271.73	86.844	921.95	515.62	119.3	933.19	129.91	77.881	1087.6	488.29	68.476	1116.8	165.16	-61.144	996.83	309.29	129.71	677.1	513.06	222.56	588.22	501.7	144.1	584.4	496.28	202.01	676.04	515.56	199.58	505.3	498.11	221.1	489.3	375.37	35.655	435.68	481.81	31.939	344.08	477.56	-23.036	388.85	464.49	84.439	393.82	494.38	-147.15	254.14	436.87	-106.79	237.08	360.43	-175.71	297	369.76	-194.66	272.43	338.13	-210.49	286.37	399.7	-175.1	140.44	473.94	-129.83	91.211	384.19	-105.06	61.844	435.34	93.209	665.8	187.46	187.83	583.55	199.89	119.67	581.43	213.02	163.61	664.33	170.21	183.95	505.14	214.33	194.96	529.35	347.14	140.39	370.35	209.13	204.8	282.87	229.98	141.8	293.93	220.38	202.72	360.13	219.91	162.16	99.997	254.38	176.69	98.814	347.07	93.304	68.761	307.43	106.5	45.998	341.22	94.515	38.948	280.78	266.72	43.198	225.78	304.41	48.144	335.73	352.92	68.36	275.48	6.1943	1480.4	338.86	-41.685	1210.8	327.12
335	1.3917	228.72	1181.8	336.74	87.524	1430.8	486.83	91.529	1427.6	171.14	73.416	1735.5	320.33	174.11	1014.8	446.06	183.98	1027.1	200.96	-45.151	1029.2	360	-33.803	1037	270.95	91.402	922.84	515.1	123.98	933.57	129.77	82.128	1088.5	487.81	73.624	1117.3	164.68	-56.493	997.64	308.5	138.07	678.61	513.14	231.85	590.79	501.37	153.38	586.05	496.53	210.45	678.38	515.19	209.69	507.49	497.96	230.87	491.68	375.03	46.126	436.54	482.03	43.181	344.91	477.59	-12.252	389.25	464.9	95.31	395.07	494.26	-135.36	254.08	437.4	-95.21	237.11	360.75	-165.27	295.83	370.02	-184.08	270.61	338.78	-199.57	284.82	400.36	-160.74	140.27	475.64	-115.47	91.078	385.84	-89.743	62.575	437.07	96.139	666.48	187.5	190.26	583.62	199.77	122.06	581.91	212.89	166.52	664.62	170.15	185.88	505.19	214.22	197.02	529.29	346.98	141.69	370.52	209	205.77	282.8	229.92	142.8	294.09	220.32	204	360.06	219.82	162.35	100.07	254.41	176.86	98.873	347.1	93.365	68.885	307.46	106.53	46.057	341.22	94.56	39.099	280.79	266.78	43.153	225.78	304.5	47.901	335.77	353.06	67.999	275.5	11.362	1481.2	338.62	-36.906	1211.7	326.45
336	1.3958	233.56	1182.1	336.66	92.409	1431.4	486.67	96.87	1428.4	171.01	78.765	1736.2	320.13	178.59	1015.9	445.99	188.85	1027.5	200.91	-40.524	1030	359.24	-29.036	1037.7	270.21	95.981	923.74	514.61	128.64	933.96	129.66	86.366	1089.4	487.35	78.752	1117.8	164.22	-51.855	998.45	307.73	146.39	680.16	513.22	241.06	593.38	500.97	162.6	587.74	496.76	218.85	680.73	514.78	219.73	509.72	497.75	240.57	494.09	374.65	56.542	437.31	482.21	54.45	345.65	477.61	-1.4766	389.51	465.3	106.16	396.28	494.12	-123.48	253.77	437.96	-83.517	236.94	361.12	-154.72	294.41	370.36	-173.36	268.54	339.47	-188.55	282.99	401.07	-146.27	139.85	477.28	-100.94	90.767	387.44	-74.258	63.138	438.74	99.054	667.16	187.52	192.66	583.69	199.62	124.44	582.4	212.75	169.41	664.9	170.08	187.8	505.24	214.09	199.09	529.24	346.79	142.98	370.69	208.84	206.72	282.73	229.85	143.79	294.26	220.23	205.26	360	219.7	162.54	100.13	254.44	177.03	98.947	347.1	93.424	69.011	307.49	106.56	46.122	341.22	94.607	39.252	280.79	266.85	43.099	225.77	304.59	47.683	335.79	353.2	67.649	275.51	16.508	1482	338.38	-32.135	1212.6	325.8
337	1.4	238.38	1182.4	336.58	97.286	1432	486.52	102.18	1429.1	170.88	84.123	1737	319.94	183.06	1017	445.95	193.71	1028	200.88	-35.902	1030.8	358.49	-24.274	1038.5	269.49	100.59	924.65	514.14	133.27	934.34	129.56	90.599	1090.3	486.91	83.853	1118.4	163.77	-47.228	999.27	307	154.66	681.73	513.29	250.22	596	500.52	171.75	589.46	496.97	227.2	683.11	514.34	229.69	511.98	497.47	250.18	496.53	374.21	66.904	437.99	482.37	65.743	346.32	477.63	9.291	389.62	465.67	116.99	397.45	493.96	-111.51	253.2	438.57	-71.704	236.56	361.54	-144.06	292.75	370.77	-162.49	266.26	340.21	-177.42	280.89	401.83	-131.7	139.19	478.87	-86.236	90.285	388.99	-58.627	63.53	440.35	101.96	667.85	187.52	195.06	583.77	199.46	126.8	582.91	212.6	172.29	665.19	169.99	189.71	505.3	213.93	201.17	529.2	346.59	144.27	370.87	208.66	207.67	282.66	229.75	144.77	294.43	220.11	206.51	359.94	219.56	162.72	100.2	254.45	177.21	99.034	347.09	93.481	69.14	307.51	106.59	46.194	341.22	94.653	39.407	280.79	266.91	43.035	225.76	304.68	47.487	335.8	353.33	67.309	275.5	21.633	1482.8	338.16	-27.368	1213.5	325.15
